<?xml version="1.0" standalone="no"?>
<!DOCTYPE svg PUBLIC "-//W3C//DTD SVG 20010904//EN"
 "http://www.w3.org/TR/2001/REC-SVG-20010904/DTD/svg10.dtd">
<svg version="1.0" xmlns="http://www.w3.org/2000/svg"
 width="240.000000pt" height="240.000000pt" viewBox="0 0 240.000000 240.000000"
 preserveAspectRatio="xMidYMid meet">

<g transform="translate(0.000000,240.000000) scale(0.100000,-0.100000)"
fill="#000000" stroke="none">
<path d="M0 1200 l0 -1200 1200 0 1200 0 0 1200 0 1200 -1200 0 -1200 0 0
-1200z m2020 864 c-146 -146 -389 -386 -540 -534 l-276 -268 -539 533 -540
534 1080 0 1080 1 -265 -266z m-1418 -1406 l-542 -543 0 1085 0 1085 542 -543
543 -542 -543 -542z m1738 540 l0 -1073 -537 537 -538 538 535 535 c294 294
536 535 537 535 2 0 3 -483 3 -1072z m-190 -992 l135 -136 -1080 0 -1080 1
540 533 540 533 405 -398 c223 -218 466 -459 540 -533z"/>
</g>
</svg>
